<svg id="visual" viewBox="0 0 900 600" width="900" height="600" xmlns="http://www.w3.org/2000/svg" xmlns:xlink="http://www.w3.org/1999/xlink" version="1.1"><rect x="0" y="0" width="900" height="600" fill="#ffffff"></rect><path d="M0 443L21.5 440C43 437 86 431 128.8 423.8C171.7 416.7 214.3 408.3 257.2 419.7C300 431 343 462 385.8 468C428.7 474 471.3 455 514.2 451.2C557 447.3 600 458.7 642.8 463.2C685.7 467.7 728.3 465.3 771.2 452.3C814 439.3 857 415.7 878.5 403.8L900 392L900 601L878.5 601C857 601 814 601 771.2 601C728.3 601 685.7 601 642.8 601C600 601 557 601 514.2 601C471.3 601 428.7 601 385.8 601C343 601 300 601 257.2 601C214.3 601 171.7 601 128.8 601C86 601 43 601 21.5 601L0 601Z" fill="#3c0097" stroke-linecap="round" stroke-linejoin="miter"></path></svg>