<svg id="visual" viewBox="0 0 900 600" width="900" height="600" xmlns="http://www.w3.org/2000/svg" xmlns:xlink="http://www.w3.org/1999/xlink" version="1.1"><rect x="0" y="0" width="900" height="600" fill="#ffffff"></rect><path d="M689 600L709.5 591.7C730 583.3 771 566.7 756.7 550C742.3 533.3 672.7 516.7 635.5 500C598.3 483.3 593.7 466.7 594.5 450C595.3 433.3 601.7 416.7 587 400C572.3 383.3 536.7 366.7 555.5 350C574.3 333.3 647.7 316.7 685 300C722.3 283.3 723.7 266.7 705 250C686.3 233.3 647.7 216.7 665.2 200C682.7 183.3 756.3 166.7 769 150C781.7 133.3 733.3 116.7 708.8 100C684.3 83.3 683.7 66.7 688 50C692.3 33.3 701.7 16.7 706.3 8.3L711 0L900 0L900 8.3C900 16.7 900 33.3 900 50C900 66.7 900 83.3 900 100C900 116.7 900 133.3 900 150C900 166.7 900 183.3 900 200C900 216.7 900 233.3 900 250C900 266.7 900 283.3 900 300C900 316.7 900 333.3 900 350C900 366.7 900 383.3 900 400C900 416.7 900 433.3 900 450C900 466.7 900 483.3 900 500C900 516.7 900 533.3 900 550C900 566.7 900 583.3 900 591.7L900 600Z" fill="#4300a8" stroke-linecap="round" stroke-linejoin="miter"></path></svg>